# xmcd
#
# Track frame offsets:
#	150
#	15587
#	29972
#	46885
#	62927
#	75910
#	90797
#	106247
#	122460
#	141582
#	156010
#	172895
#	190305
#	208172
#	221200
#
# Disc length: 3158 seconds
#
# Revision: 1
# Processed by: cddbd v1.5.1PL2 Copyright (c) Steve Scherf et al.
# Submitted via: audiograbber 1.83.01
#
DISCID=cb0c540f
DTITLE=Sound Choice - SC8229
DYEAR=1900
DGENRE=Karaoke Country
TTITLE0=Kershaw, Sammy - She Don'T Know She'S Beautiful
TTITLE1=Brokop, Lisa - Give Me A Ring Sometime
TTITLE2=Judds - John Deere Tractor
TTITLE3=Collie, Mark - Hard Lovin' Woman
TTITLE4=Strait, George - If I Know Me
TTITLE5=Trevino, Rick - Doctor Time
TTITLE6=Mattea, Kathy - Listen To The Radio
TTITLE7=Nichols, Turner - She Loves To Hear Me Rock
TTITLE8=Walker, Clay - This Woman And This Man
TTITLE9=Lawrence, Tracy - As Any Fool Can See
TTITLE10=Yearwood, Trisha - Thinkin' About You
TTITLE11=Brooks, Garth - Red Strokes, The
TTITLE12=Alabama - Jukebox In My Mind
TTITLE13=Supernaw, Doug - What'Ll You Do About Me
TTITLE14=Strait, George - You Can'T Make A Heart Love Somebody
EXTD=
EXTT0=
EXTT1=
EXTT2=
EXTT3=
EXTT4=
EXTT5=
EXTT6=
EXTT7=
EXTT8=
EXTT9=
EXTT10=
EXTT11=
EXTT12=
EXTT13=
EXTT14=
PLAYORDER=
